<?xml version="1.0" encoding="UTF-8"?>
<svg xmlns="http://www.w3.org/2000/svg" version="1.1" viewBox="0 0 222.5 39.9">
  <defs>
    <style>
      .cls-1 {
        fill: #62136d;
      }

      .cls-2 {
        fill: #af1f24;
      }

      .cls-3 {
        fill: #fff;
      }

      .cls-4 {
        fill: #b39d90;
      }

      .cls-5 {
        fill: #c4161c;
      }
    </style>
  </defs>
  <!-- Generator: Adobe Illustrator 28.6.0, SVG Export Plug-In . SVG Version: 1.2.0 Build 709)  -->
  <g>
    <g id="Layer_1">
      <g id="Camada_2">
        <g id="Layer_1-2" data-name="Layer_1">
          <polygon class="cls-1" points="100.7 8.1 100.7 39.9 106.8 35.9 106.8 16.2 116.6 12.2 126.4 16.2 126.4 35.9 132.5 39.9 132.5 8.1 100.7 8.1"/>
          <polygon class="cls-4" points="88.5 0 88.5 31.8 94.6 27.8 94.6 8.1 104.4 4.1 114.3 8.1 114.3 27.8 120.3 31.8 120.3 0 88.5 0"/>
          <polygon class="cls-2" points="94.6 4.1 94.6 35.9 100.7 31.8 100.7 12.2 110.5 8.1 120.3 12.2 120.3 31.8 126.4 35.9 126.4 4.1 94.6 4.1"/>
          <polygon class="cls-5" points="94.6 4.1 94.6 35.9 100.7 31.8 100.7 12.2 110.5 8.1 120.3 12.2 120.3 31.8 126.4 35.9 126.4 4.1 94.6 4.1"/>
          <path class="cls-3" d="M4.9,15.4c1.4,0,2.7.6,3.6,1.6l-.7.6c-.7-.8-1.8-1.3-2.9-1.3-2.1,0-3.8,1.6-3.9,3.7,0,0,0,.2,0,.3,0,2.1,1.6,3.9,3.7,3.9,0,0,.1,0,.2,0,1.1,0,2.2-.5,2.9-1.3l.7.7c-.9,1.1-2.3,1.7-3.7,1.7-2.7,0-4.9-2.2-4.9-4.9,0-2.7,2.2-4.9,4.9-4.9h0,0Z"/>
          <path class="cls-3" d="M15.9,15.4c2.7,0,4.9,2.2,4.9,4.9s-2.2,4.9-4.9,4.9h0c-2.7,0-4.9-2.2-4.9-4.9s2.2-4.9,4.9-4.9c0,0,0,0,0,0ZM15.9,24.2c2.1,0,3.8-1.6,3.9-3.7,0,0,0-.1,0-.2.1-2.1-1.5-4-3.7-4.1-2.1-.1-4,1.5-4.1,3.7,0,.1,0,.3,0,.4,0,2.1,1.6,3.9,3.7,3.9,0,0,.1,0,.2,0Z"/>
          <path class="cls-3" d="M24,15.2l4.6,6.5,4.6-6.5v9.8h-1v-6.6l-3.5,5.1-3.5-5.1v6.6h-1.1v-9.8Z"/>
          <path class="cls-3" d="M37,15.5h3c1.6,0,3,1.1,3.1,2.7s-1.1,3-2.7,3.1c-.1,0-.2,0-.3,0h-2v3.7h-1v-9.5ZM40,20.3c1.1,0,1.8-1,1.8-2,0-.9-.8-1.7-1.8-1.8h-2v3.8h2Z"/>
          <path class="cls-3" d="M46.1,15.5h1.1v8.5h3.9v1h-5v-9.5Z"/>
          <path class="cls-3" d="M54.1,15.5h5.4v1h-4.3v3h4v1h-4v3.5h4.4v1h-5.5v-9.5Z"/>
          <path class="cls-3" d="M65.3,20.1l-3-4.6h1.2l2.5,3.8,2.5-3.9h1.1l-3,4.6,3.2,4.9h-1.2l-2.7-4.2-2.7,4.2h-1.1l3.2-4.9Z"/>
          <path class="cls-3" d="M76.7,15.4c2.7,0,4.9,2.2,4.9,4.9,0,2.7-2.2,4.9-4.9,4.9-2.7,0-4.9-2.2-4.9-4.9,0-2.7,2.1-4.9,4.8-4.9,0,0,.1,0,.2,0ZM76.7,24.2c2.1,0,3.8-1.6,3.9-3.7,0,0,0-.1,0-.2.1-2.1-1.5-4-3.7-4.1-2.1-.1-4,1.5-4.1,3.7,0,.1,0,.3,0,.4,0,2.1,1.6,3.9,3.7,3.9,0,0,.1,0,.2,0Z"/>
          <path class="cls-3" d="M143.1,10.6h-2.6v-1.9h7.2v1.9h-2.5v7.6h-2.1v-7.6Z"/>
          <path class="cls-3" d="M149.8,8.7h2.1v3.5h4.1v-3.5h2.1v9.5h-2.1v-4.1h-4.1v4.1h-2.1v-9.5Z"/>
          <path class="cls-3" d="M161,8.7h6.5v1.9h-4.4v1.8h4.1v1.9h-4.1v2h4.5v1.9h-6.6v-9.5Z"/>
          <path class="cls-3" d="M174.2,8.2l4.9,10h-2.2l-.7-1.5h-4l-.7,1.5h-2.2l5-10ZM175.4,14.9l-1.2-2.5-1.2,2.5h2.4Z"/>
          <path class="cls-3" d="M181.9,10.6h-2.6v-1.9h7.2v1.9h-2.5v7.6h-2.1v-7.6Z"/>
          <path class="cls-3" d="M188.6,8.7h4c1.7,0,3.2,1.3,3.2,3.1,0,0,0,0,0,0,0,1.2-.6,2.2-1.7,2.7l2.3,3.7h-2.4l-2-3.2h-1.4v3.2h-2.1v-9.5ZM192.4,13.2c.7,0,1.3-.5,1.4-1.2,0,0,0-.1,0-.2,0-.7-.5-1.2-1.1-1.2,0,0,0,0,0,0h-1.8v2.6h1.7Z"/>
          <path class="cls-3" d="M203,8.6c2.7,0,4.9,2.3,4.8,5,0,2.7-2.3,4.9-5,4.8-2.7,0-4.8-2.2-4.8-4.9,0-2.7,2.3-4.9,5-4.9ZM203,16.5c1.7,0,3-1.3,3-3s-1.3-3-3-3-3,1.3-3,3,1.3,3,3,3Z"/>
          <path class="cls-3" d="M141.2,22l5,5.5,5-5.5v9.8h-2v-4.8l-3,3.4-3-3.4v4.8h-2v-9.8Z"/>
          <path class="cls-3" d="M154,22.4h2.1v5.4c0,1.7.8,2.3,1.9,2.3s1.9-.6,1.9-2.3v-5.4h2.1v5.6c0,2.2-1.8,4-4,4s-4-1.8-4-4v-5.6Z"/>
          <path class="cls-3" d="M164.9,22l6.4,5.8v-5.4h2.1v9.9l-6.4-5.7v5.4h-2.1v-9.8Z"/>
          <path class="cls-3" d="M176.2,22.4h2.1v9.5h-2.1v-9.5Z"/>
          <path class="cls-3" d="M185.9,22.2c1.5,0,2.9.7,3.8,1.8l-1.4,1.2c-.6-.7-1.5-1.1-2.4-1.1-1.7,0-3,1.3-3,3s1.3,3,3,3c.9,0,1.8-.4,2.4-1.1l1.4,1.2c-1,1.1-2.4,1.8-3.9,1.8-2.7,0-4.9-2.2-4.9-4.9,0-2.7,2.2-4.9,4.9-4.9h0Z"/>
          <path class="cls-3" d="M192,22.4h2.1v9.5h-2.1v-9.5Z"/>
          <path class="cls-3" d="M197.1,22.4h4c1.8,0,3.2,1.4,3.2,3.2h0c0,1.8-1.4,3.2-3.2,3.2h-1.9v3.1h-2.1v-9.5ZM201,26.9c.7,0,1.2-.5,1.2-1.2,0,0,0,0,0-.1,0-.7-.4-1.3-1.1-1.3,0,0,0,0-.1,0h-1.8v2.6h1.8Z"/>
          <path class="cls-3" d="M209.7,21.8l4.9,10h-2.2l-.7-1.5h-4l-.7,1.5h-2.2l4.9-10ZM210.9,28.5l-1.2-2.5-1.2,2.5h2.4Z"/>
          <path class="cls-3" d="M216.7,22.4h2.1v7.6h3.7v1.9h-5.8v-9.5Z"/>
        </g>
      </g>
    </g>
  </g>
</svg>